<svg xmlns="http://www.w3.org/2000/svg" viewBox="0 0 266 60" enable-background="new 0 0 266 60"><text transform="matrix(1.03 0 0 1 0 47.397)"><tspan x="0" y="0" fill="#fff" font-family="'Roboto-Bold'" font-size="46.508" letter-spacing="-1">W</tspan><tspan x="39.1" y="0" fill="#fff" font-family="'Roboto-Bold'" font-size="46.508" letter-spacing="-1.9">IN</tspan><tspan x="80" y="0" fill="#fff" font-family="'Roboto-Bold'" font-size="46.508" letter-spacing="-1">D</tspan><tspan x="108.9" y="0" fill="#fff" font-family="'Roboto-Bold'" font-size="46.508">E</tspan><tspan x="133.8" y="0" fill="#fff" font-family="'Roboto-Bold'" font-size="46.508" letter-spacing="-1">RFU</tspan><tspan x="215.7" y="0" fill="#fff" font-family="'Roboto-Bold'" font-size="46.508">L</tspan></text><g fill="#fff"><path d="M256.6 9.1c0 .4-.1.8-.2 1.2-.1.4-.3.7-.5.9-.2.2-.5.4-.8.6-.3.1-.7.2-1 .2s-.7-.1-1-.2c-.3-.1-.6-.3-.8-.6-.2-.2-.4-.5-.5-.9-.1-.4-.2-.8-.2-1.2v-.3c0-.4.1-.8.2-1.2.1-.4.3-.7.5-.9.2-.2.5-.4.8-.6.3-.1.7-.2 1-.2.4 0 .7.1 1 .2.3.1.6.3.8.6.2.2.4.6.5.9.1.4.2.8.2 1.2v.3zm-1.2-.3c0-.6-.1-1.1-.3-1.4-.2-.3-.5-.5-1-.5s-.7.2-1 .5c-.2.3-.3.8-.3 1.4v.3c0 .3 0 .6.1.8.1.2.1.4.3.6.1.2.2.3.4.4.2.1.3.1.6.1.4 0 .7-.2 1-.5.2-.3.3-.8.3-1.4v-.3zM257.5 11.9V6h1.9c.4 0 .8.1 1.1.2.3.1.6.3.9.6.2.2.4.5.6.9.1.3.2.7.2 1.1v.3c0 .4-.1.8-.2 1.1-.1.3-.3.6-.6.9-.2.2-.5.4-.9.6-.3.1-.7.2-1.1.2h-1.9zm1.3-4.9v3.9h.6c.5 0 .9-.2 1.1-.5s.4-.8.4-1.3v-.3c0-.6-.1-1-.4-1.4-.3-.3-.6-.5-1.1-.5h-.6z"/></g><ellipse stroke="#fff" stroke-width="1.212" stroke-miterlimit="10" cx="256.8" cy="8.9" rx="8.2" ry="7.9" fill="none"/></svg>