<svg xmlns="http://www.w3.org/2000/svg" viewBox="0 0 46 42" enable-background="new 0 0 46 42"><path fill="#fff" d="M41.8 36.8H4.2V20.4c0-2.3 1.9-4.2 4.2-4.2h29.3c2.3 0 4.2 1.9 4.2 4.2v16.4z"/><path opacity=".75" fill="#fff" d="M46 41H0v-1.4c0-1.5 1.2-2.7 2.7-2.7h40.5c1.5 0 2.7 1.2 2.7 2.7V41zM0 24.3h4.2v4.2H0zM9 8.1l.2 1.9c0 .5.5.9 1 .9s1 .3 1 .9l.3 14.2c0 .9.8 1.6 1.7 1.5 0 0 7.8-1.2 10.6-1.4 2.4-.2 10.2-.2 10.2-.2.9-.1 1.5-.9 1.4-1.8l-1.9-14c0-.5.3-1 .9-1 .5 0 .9-.5.9-1l-.3-2c-.2-3-2.9-5.3-6-5.1L14.1 2.2c-3 .2-5.3 2.9-5.1 5.9z"/><path fill="#fff" d="M29.4 1c2.9 0 5.3 2.2 5.5 5.1l.2 1.9c0 .5-.3 1-.9 1-.5 0-.9.5-.9 1l1.9 14c.1.9-.5 1.7-1.4 1.8 0 0-7.8 0-10.2.2-2.8.2-10.6 1.4-10.6 1.4h-.1c-.8 0-1.5-.7-1.5-1.5l-.3-14.2c0-.5-.4-.9-.9-.9H10c-.5 0-.9-.4-.9-.9L9 8.1c-.2-3 2-5.7 5.1-6L29 1h.4m0-.9h-.5L14 1.3c-1.7.1-3.3.9-4.4 2.2-1.1 1.3-1.6 3-1.5 4.7l.1 1.9c.1 1 .9 1.7 1.9 1.7h.1l.3 14.1c0 1.3 1.1 2.4 2.5 2.4h.2c.1 0 7.8-1.2 10.5-1.4 2.4-.2 10.1-.2 10.2-.2.7-.1 1.3-.4 1.7-.9.4-.5.6-1.2.5-1.9l-1.9-14c.5 0 .9-.3 1.3-.6.3-.4.5-.9.4-1.4V6C35.6 2.7 32.8.1 29.4.1z"/></svg>