<svg xmlns="http://www.w3.org/2000/svg" xmlns:xlink="http://www.w3.org/1999/xlink" viewBox="0 0 488 496" enable-background="new 0 0 488 496"><symbol id="a" viewBox="0 -18 219.8 36"><path fill="#fff" d="M30.8 18L0 7.8C1.8 4.3 2.8.2 2.8-4c0-3.5-.7-6.9-2-10l124.5-4 85.5 4.5 9 13.5-189 18z"/></symbol><symbol id="b" viewBox="-192 -220 384 440"><path fill="#CDCCCC" d="M-33.3 1.6c0-10-8.1-18-18-18s-18 8.1-18 18 8.1 18 18 18 18-8 18-18z"/><use xlink:href="#a" width="219.8" height="36" y="-18" transform="matrix(1.001 0 0 1.002 -27.987 4.966)" overflow="visible"/><path fill="#fff" d="M-33.3 1.6c0-10-8.1-18-18-18s-18 8.1-18 18 8.1 18 18 18 18-8 18-18z"/><use xlink:href="#a" width="219.8" height="36" y="-18" transform="matrix(-.5 .868 -.867 -.501 -66.29 20.123)" overflow="visible"/><use xlink:href="#a" width="219.8" height="36" y="-18" transform="matrix(-.5 -.868 .867 -.501 -59.422 -20.123)" overflow="visible"/></symbol><g><g opacity=".1" fill="#4C87A1"><ellipse cx="240.2" cy="244" rx="18" ry="18"/><path d="M294.4 222.6l-30.9 10.2c1.8 3.5 2.8 7.6 2.8 11.8 0 3.5-.7 6.9-2 10l124.6 4 85.6-4.5 9-13.5-189.1-18z"/><ellipse cx="240.2" cy="244" rx="18" ry="18"/><path d="M194.2 207.7l24.3 21.6c2.2-3.3 5.1-6.2 8.8-8.4 3.1-1.8 6.3-2.8 9.7-3.3l-58.8-110-46.7-71.9-16.2-1 78.9 173zM232.2 301.5l6.6-31.9c-4-.2-8-1.3-11.6-3.4-3.1-1.8-5.6-4.1-7.7-6.7l-65.8 106-38.9 76.4 7.2 14.6 110.2-155z"/></g><use xlink:href="#b" width="384" height="440" x="-192" y="-220" transform="matrix(1 0 0 -1 295.48 249.6)" overflow="visible"/></g><path fill="#6AC06C" d="M0-28.3h244v23H0zM-30 0h20v248h-20z"/></svg>