<svg xmlns="http://www.w3.org/2000/svg" viewBox="0 0 64 64" enable-background="new 0 0 64 64"><path fill="#fff" d="M32 0C14.3 0 0 14.3 0 32s14.3 32 32 32 32-14.3 32-32S49.7 0 32 0zm16.1 26.5c.5 10.4-7.3 22.1-21.1 22.1-4.2 0-8.1-1.2-11.4-3.3 3.9.5 7.9-.6 11-3.1-3.2-.1-6-2.2-6.9-5.2 1.2.2 2.3.2 3.4-.1-3.6-.7-6-3.9-6-7.4 1 .6 2.1.9 3.4.9-3.3-2.2-4.2-6.6-2.3-9.9 3.7 4.5 9.1 7.4 15.3 7.8-1.1-4.6 2.4-9.1 7.2-9.1 2.1 0 4.1.9 5.4 2.3 1.7-.3 3.3-1 4.7-1.8-.6 1.7-1.7 3.2-3.3 4.1 1.5-.2 2.9-.6 4.3-1.2-1 1.5-2.3 2.8-3.7 3.9z"/></svg>