<?xml version="1.0" encoding="utf-8"?>
<!-- Generator: Adobe Illustrator 18.1.0, SVG Export Plug-In . SVG Version: 6.00 Build 0)  -->
<svg version="1.1" id="Layer_1" xmlns="http://www.w3.org/2000/svg" xmlns:xlink="http://www.w3.org/1999/xlink" x="0px" y="0px"
	 viewBox="0 0 64 64" enable-background="new 0 0 64 64" xml:space="preserve">
<path fill="#FFFFFF" d="M32,0C14.3,0,0,14.3,0,32c0,17.7,14.3,32,32,32c17.7,0,32-14.3,32-32C64,14.3,49.7,0,32,0z M41.4,18.8
	c0,0-3.2,0-4.5,0c-1.6,0-1.9,0.6-1.9,2.3c0,1.4,0,3.9,0,3.9h6.4L40.8,32h-5.8v20.7h-8.3V32.1h-4.3v-7h4.3c0,0,0-1,0-5.5
	c0-5.2,2.8-7.9,8.9-7.9c1,0,5.7,0,5.7,0V18.8z"/>
</svg>
