<?xml version="1.0" encoding="utf-8"?>
<!-- Generator: Adobe Illustrator 18.1.0, SVG Export Plug-In . SVG Version: 6.00 Build 0)  -->
<svg version="1.1" id="Layer_1" xmlns="http://www.w3.org/2000/svg" xmlns:xlink="http://www.w3.org/1999/xlink" x="0px" y="0px"
	 viewBox="0 0 50 42" enable-background="new 0 0 50 42" xml:space="preserve">
<g>
	<path fill="#FFFFFF" d="M44,9.8V4h-4v2.5L35,0H14.3L0,19h6v23h38V19h6L44,9.8z M6.9,9.8c4.1,2.8,9.5,5.8,13,9.7
		c0.1-0.1,0.2-0.1,0.3-0.2l0.1-0.1c3.2-1.9,7.3-0.9,9.3,2.3l2.6,4.3l-2,1.2l2.7,4.6l-2,1.2L28,28.4l-3.6,2.1l2.7,4.6l-2,1.2
		l-2.7-4.6l-2,1.2l-2.6-4.3c-1.5-2.6-1.1-5.8,0.8-8c-3.4-3.8-9.5-6.5-12.9-9.2C5.7,11.4,6.9,9.8,6.9,9.8z"/>
</g>
</svg>
