<?xml version="1.0" encoding="utf-8"?>
<!-- Generator: Adobe Illustrator 18.1.0, SVG Export Plug-In . SVG Version: 6.00 Build 0)  -->
<svg version="1.1" id="Layer_1" xmlns="http://www.w3.org/2000/svg" xmlns:xlink="http://www.w3.org/1999/xlink" x="0px" y="0px"
	 viewBox="0 0 42 42" enable-background="new 0 0 42 42" xml:space="preserve">
<g>
	<path fill="#FFFFFF" d="M29.2,36.9H12.1L7.8,15.8c-0.1-0.5,0.3-0.9,0.8-0.9H32c0.5,0,0.9,0.4,0.8,0.9L29.2,36.9z"/>
	<path fill="none" stroke="#FFFFFF" stroke-width="3" stroke-miterlimit="10" d="M30,21c1-1.2,3.7-2.3,5.4-2.3c3,0,4.3,1.5,4.3,4.5
		S36.9,28,34.2,28c-2.3,0-5.7,4-5.9,5.4"/>
	<path opacity="0.75" fill="#FFFFFF" d="M32.2,39H9.8c-0.7,0-1.4-0.2-1.9-0.6l-5.7-3.6c-0.3-0.2-0.1-0.5,0.2-0.5h37.4
		c0.3,0,0.4,0.4,0.2,0.5l-5.7,3.6C33.6,38.8,32.9,39,32.2,39z"/>
	<path opacity="0.75" fill="none" stroke="#FFFFFF" stroke-miterlimit="10" d="M13.2-19c1.8,4.5,1.5,6.3,0,7.4
		c-2.2,1.6-3.9,5.4,0,7.4c5,2.6,2.5,4.4-0.1,6.1c-6,3.9,2.8,6.1,2.1,10.8"/>
	<path opacity="0.75" fill="none" stroke="#FFFFFF" stroke-miterlimit="10" d="M22.1-19c1.8,4.5,1.5,6.3,0,7.4
		c-2.2,1.6-3.9,5.4,0,7.4c5,2.6,2.5,4.4-0.1,6.1c-6,3.9,2.8,6.1,2.1,10.8"/>
</g>
</svg>
