<?xml version="1.0" encoding="utf-8"?>
<!-- Generator: Adobe Illustrator 18.1.0, SVG Export Plug-In . SVG Version: 6.00 Build 0)  -->
<svg version="1.1" id="Layer_1" xmlns="http://www.w3.org/2000/svg" xmlns:xlink="http://www.w3.org/1999/xlink" x="0px" y="0px"
	 viewBox="0 0 46 42" enable-background="new 0 0 46 42" xml:space="preserve">
<g>
	<path fill="#FFFFFF" d="M41.8,36.8H4.2V20.4c0-2.3,1.9-4.2,4.2-4.2h29.3c2.3,0,4.2,1.9,4.2,4.2V36.8z"/>
	<path opacity="0.75" fill="#FFFFFF" d="M46,41H0v-1.4c0-1.5,1.2-2.7,2.7-2.7h40.5c1.5,0,2.7,1.2,2.7,2.7V41z"/>
	<rect y="24.3" opacity="0.75" fill="#FFFFFF" width="4.2" height="4.2"/>
	<g>
		<path opacity="0.75" fill="#FFFFFF" d="M9,8.1L9.2,10c0,0.5,0.5,0.9,1,0.9h0c0.5,0,1,0.3,1,0.9l0.3,14.2c0,0.9,0.8,1.6,1.7,1.5
			c0,0,7.8-1.2,10.6-1.4c2.4-0.2,10.2-0.2,10.2-0.2c0.9-0.1,1.5-0.9,1.4-1.8l-1.9-14c0-0.5,0.3-1,0.9-1l0,0c0.5,0,0.9-0.5,0.9-1
			L35,6.1c-0.2-3-2.9-5.3-6-5.1L14.1,2.2C11.1,2.4,8.8,5.1,9,8.1z"/>
		<g>
			<path fill="#FFFFFF" d="M29.4,1c2.9,0,5.3,2.2,5.5,5.1L35.1,8c0,0.5-0.3,1-0.9,1c-0.5,0-0.9,0.5-0.9,1l1.9,14
				c0.1,0.9-0.5,1.7-1.4,1.8c0,0-7.8,0-10.2,0.2c-2.8,0.2-10.6,1.4-10.6,1.4c0,0-0.1,0-0.1,0c-0.8,0-1.5-0.7-1.5-1.5l-0.3-14.2
				c0-0.5-0.4-0.9-0.9-0.9c0,0,0,0-0.1,0c0,0,0,0-0.1,0c-0.5,0-0.9-0.4-0.9-0.9L9,8.1c-0.2-3,2-5.7,5.1-6L29,1C29.1,1,29.3,1,29.4,1
				 M29.4,0.1c-0.2,0-0.3,0-0.5,0L14,1.3c-1.7,0.1-3.3,0.9-4.4,2.2C8.5,4.8,8,6.5,8.1,8.2l0.1,1.9c0.1,1,0.9,1.7,1.9,1.7
				c0,0,0.1,0,0.1,0l0,0l0.3,14.1c0,1.3,1.1,2.4,2.5,2.4c0.1,0,0.1,0,0.2,0l0,0l0,0c0.1,0,7.8-1.2,10.5-1.4
				c2.4-0.2,10.1-0.2,10.2-0.2l0,0l0,0c0.7-0.1,1.3-0.4,1.7-0.9c0.4-0.5,0.6-1.2,0.5-1.9l-1.9-14c0.5,0,0.9-0.3,1.3-0.6
				c0.3-0.4,0.5-0.9,0.4-1.4L35.9,6C35.6,2.7,32.8,0.1,29.4,0.1L29.4,0.1z"/>
		</g>
	</g>
</g>
</svg>
