<?xml version="1.0" encoding="utf-8"?>
<!-- Generator: Adobe Illustrator 18.1.0, SVG Export Plug-In . SVG Version: 6.00 Build 0)  -->
<svg version="1.1" id="Layer_1" xmlns="http://www.w3.org/2000/svg" xmlns:xlink="http://www.w3.org/1999/xlink" x="0px" y="0px"
	 viewBox="0 0 496 496" enable-background="new 0 0 496 496" xml:space="preserve">
<symbol  id="BLADE" viewBox="0 -18 220 36">
	<path fill="#FFFFFF" d="M30.8,18L0,7.8C1.8,4.3,2.8,0.2,2.8-4c0-3.5-0.7-6.9-2-10l124.5-4l85.5,4.5l9,13.5L30.8,18z"/>
	<polygon display="none" fill="none" points="0,18 220,18 220,-18 0,-18 	"/>
</symbol>
<g>
	<g>
		<ellipse fill="#CDCCCC" cx="248" cy="248" rx="18" ry="18"/>
		
			<use xlink:href="#BLADE"  width="220" height="36" y="-18" transform="matrix(1.0003 0 0 -1.0018 271.3489 244.5633)" overflow="visible"/>
		<ellipse fill="#FFFFFF" cx="248" cy="248" rx="18" ry="18"/>
	</g>
	
		<use xlink:href="#BLADE"  width="220" height="36" id="XMLID_24_" y="-18" transform="matrix(-0.5002 -0.8676 -0.8663 0.5009 233.049 229.5173)" overflow="visible"/>
	
		<use xlink:href="#BLADE"  width="220" height="36" y="-18" transform="matrix(-0.5002 0.8676 0.8663 0.5009 239.9129 269.7626)" overflow="visible"/>
</g>
</svg>
