<?xml version="1.0" encoding="utf-8"?>
<!-- Generator: Adobe Illustrator 18.1.0, SVG Export Plug-In . SVG Version: 6.00 Build 0)  -->
<svg version="1.1" id="Layer_1" xmlns="http://www.w3.org/2000/svg" xmlns:xlink="http://www.w3.org/1999/xlink" x="0px" y="0px"
	 viewBox="0 0 488 496" enable-background="new 0 0 488 496" xml:space="preserve">
<symbol  id="BLADE" viewBox="0 -18 219.8 36">
	<path fill="#FFFFFF" d="M30.8,18L0,7.8C1.8,4.3,2.8,0.2,2.8-4c0-3.5-0.7-6.9-2-10l124.5-4l85.5,4.5l9,13.5L30.8,18z"/>
	<polygon display="none" fill="none" points="0,18 220,18 220,-18 0,-18 	"/>
</symbol>
<symbol  id="propellas" viewBox="-192 -220 384 440">
	<g>
		<path fill="#CDCCCC" d="M-33.3,1.6c0-10-8.1-18-18-18s-18,8.1-18,18s8.1,18,18,18S-33.3,11.6-33.3,1.6z"/>
		
			<use xlink:href="#BLADE"  width="219.8" height="36" x="0" y="-18" transform="matrix(1.0008 0 0 1.0018 -27.9871 4.966)" overflow="visible"/>
		<path fill="#FFFFFF" d="M-33.3,1.6c0-10-8.1-18-18-18s-18,8.1-18,18s8.1,18,18,18S-33.3,11.6-33.3,1.6z"/>
	</g>
	
		<use xlink:href="#BLADE"  width="219.8" height="36" id="XMLID_2_" x="0" y="-18" transform="matrix(-0.5004 0.8676 -0.8667 -0.5009 -66.2895 20.1226)" overflow="visible"/>
	
		<use xlink:href="#BLADE"  width="219.8" height="36" x="0" y="-18" transform="matrix(-0.5004 -0.8676 0.8667 -0.5009 -59.4225 -20.1226)" overflow="visible"/>
</symbol>
<g id="XMLID_20_">
	<g opacity="0.1">
		<ellipse fill="#4C87A1" cx="240.2" cy="244" rx="18" ry="18"/>
		<path fill="#4C87A1" d="M294.4,222.6l-30.9,10.2c1.8,3.5,2.8,7.6,2.8,11.8c0,3.5-0.7,6.9-2,10l124.6,4l85.6-4.5l9-13.5
			L294.4,222.6z"/>
		<ellipse fill="#4C87A1" cx="240.2" cy="244" rx="18" ry="18"/>
		<path fill="#4C87A1" d="M194.2,207.7l24.3,21.6c2.2-3.3,5.1-6.2,8.8-8.4c3.1-1.8,6.3-2.8,9.7-3.3l-58.8-110l-46.7-71.9l-16.2-1
			L194.2,207.7z"/>
		<path fill="#4C87A1" d="M232.2,301.5l6.6-31.9c-4-0.2-8-1.3-11.6-3.4c-3.1-1.8-5.6-4.1-7.7-6.7l-65.8,106l-38.9,76.4l7.2,14.6
			L232.2,301.5z"/>
	</g>
	<g>
		
			<use xlink:href="#propellas"  width="384" height="440" x="-192" y="-220" transform="matrix(1 0 0 -1 295.48 249.6)" overflow="visible"/>
	</g>
</g>
<rect y="-28.3" fill="#6AC06C" width="244" height="23"/>
<rect x="-30" fill="#6AC06C" width="20" height="248"/>
</svg>
