<?xml version="1.0" encoding="utf-8"?>
<!-- Generator: Adobe Illustrator 18.1.0, SVG Export Plug-In . SVG Version: 6.00 Build 0)  -->
<svg version="1.1" id="Layer_1" xmlns="http://www.w3.org/2000/svg" xmlns:xlink="http://www.w3.org/1999/xlink" x="0px" y="0px"
	 viewBox="0 0 64 64" enable-background="new 0 0 64 64" xml:space="preserve">
<path fill="#FFFFFF" d="M32,0C14.3,0,0,14.3,0,32c0,17.7,14.3,32,32,32c17.7,0,32-14.3,32-32C64,14.3,49.7,0,32,0z M48.1,26.5
	c0.5,10.4-7.3,22.1-21.1,22.1c-4.2,0-8.1-1.2-11.4-3.3c3.9,0.5,7.9-0.6,11-3.1c-3.2-0.1-6-2.2-6.9-5.2c1.2,0.2,2.3,0.2,3.4-0.1
	c-3.6-0.7-6-3.9-6-7.4c1,0.6,2.1,0.9,3.4,0.9c-3.3-2.2-4.2-6.6-2.3-9.9c3.7,4.5,9.1,7.4,15.3,7.8c-1.1-4.6,2.4-9.1,7.2-9.1
	c2.1,0,4.1,0.9,5.4,2.3c1.7-0.3,3.3-1,4.7-1.8c-0.6,1.7-1.7,3.2-3.3,4.1c1.5-0.2,2.9-0.6,4.3-1.2C50.8,24.1,49.5,25.4,48.1,26.5z"/>
</svg>
