<svg xmlns="http://www.w3.org/2000/svg" viewBox="0 0 42 42" enable-background="new 0 0 42 42"><path fill="#fff" d="M29.2 36.9H12.1L7.8 15.8c-.1-.5.3-.9.8-.9H32c.5 0 .9.4.8.9l-3.6 21.1z"/><path stroke="#fff" stroke-width="3" stroke-miterlimit="10" d="M30 21c1-1.2 3.7-2.3 5.4-2.3 3 0 4.3 1.5 4.3 4.5S36.9 28 34.2 28c-2.3 0-5.7 4-5.9 5.4" fill="none"/><path opacity=".75" fill="#fff" d="M32.2 39H9.8c-.7 0-1.4-.2-1.9-.6l-5.7-3.6c-.3-.2-.1-.5.2-.5h37.4c.3 0 .4.4.2.5l-5.7 3.6c-.7.4-1.4.6-2.1.6z"/><path opacity=".75" stroke="#fff" stroke-miterlimit="10" d="M13.2-19c1.8 4.5 1.5 6.3 0 7.4-2.2 1.6-3.9 5.4 0 7.4 5 2.6 2.5 4.4-.1 6.1-6 3.9 2.8 6.1 2.1 10.8M22.1-19c1.8 4.5 1.5 6.3 0 7.4-2.2 1.6-3.9 5.4 0 7.4 5 2.6 2.5 4.4-.1 6.1-6 3.9 2.8 6.1 2.1 10.8" fill="none"/></svg>