<svg xmlns="http://www.w3.org/2000/svg" xmlns:xlink="http://www.w3.org/1999/xlink" viewBox="0 0 194 332" enable-background="new 0 0 194 332"><symbol id="b" viewBox="-12 -17.3 24 34.6"><path fill="#ED2224" d="M11.3-5.9c0-6.3-5.1-11.4-11.3-11.4s-11.3 5.1-11.3 11.4S-6.2 5.4 0 5.4 11.3.3 11.3-5.9z"/><path stroke="#818181" stroke-linecap="square" stroke-miterlimit="10" fill="none" d="M-.5 5.8v11"/><path stroke="#F27BAA" stroke-width="3" stroke-linecap="round" stroke-miterlimit="10" d="M-1.9 2.3S-8.1 1-8.2-6.5" fill="none"/></symbol><symbol id="a" viewBox="-12 -17.4 24 34.8"><path fill="#EBCE76" d="M11.8-6c0-6.3-5.1-11.4-11.3-11.4S-10.8-12.3-10.8-6-5.7 5.3.5 5.3 11.8.2 11.8-6z"/><path stroke="#818181" stroke-linecap="square" stroke-miterlimit="10" fill="none" d="M-.5 5.9v11"/><path fill="#F5E2B7" d="M-7.7-8.1c-.9 0-1.5.7-1.5 1.5.1 6.9 4.9 9.7 7.5 10.3.8.2 1.6-.3 1.8-1.2C.2 1.7-.3.9-1.1.7c-.2 0-5-1.2-5.1-7.4 0-.7-.7-1.4-1.5-1.4z"/></symbol><use xlink:href="#a" width="24" height="34.8" x="-12" y="-17.4" transform="matrix(.701 0 0 -.701 125.391 100.436)" overflow="visible"/><use xlink:href="#b" width="24" height="34.6" x="-12" y="-17.3" transform="matrix(.701 0 0 -.701 92.644 230.842)" overflow="visible"/><path fill="#8E6226" d="M87.2 226.8c2.1 2.1-6.3 101.3-3.5 102 2.8.7 37.8 3.2 37.8 3.2l-7.1-107.6-27.2 2.4z"/><path fill="#31451D" d="M90.1 80.6L.6 256.7 194 244.2z"/><path fill="#4C6830" d="M86.4 34.3L30.7 181.1l137.5-8.9z"/><path fill="#68934F" d="M81.4 0L44.2 97.8 136 92z"/><path opacity=".85" stroke="#CDCCCC" stroke-width="30" stroke-linecap="round" stroke-miterlimit="10" enable-background="new" d="M111.7 51C98 73.7 80.7 80.6 50.8 80.6M138.6 128C125 154 60.2 139.4 37 158.9" fill="none"/><use xlink:href="#b" width="24" height="34.6" x="-12" y="-17.3" transform="matrix(.701 0 0 -.701 64.097 106.115)" overflow="visible" enable-background="new"/><use xlink:href="#b" width="24" height="34.6" x="-12" y="-17.3" transform="matrix(.701 0 0 -.701 102.462 47.886)" overflow="visible" enable-background="new"/><use xlink:href="#a" width="24" height="34.8" x="-12" y="-17.4" transform="matrix(.701 0 0 -.701 137.835 173.42)" overflow="visible" enable-background="new"/><use xlink:href="#a" width="24" height="34.8" x="-12" y="-17.4" transform="matrix(.701 0 0 -.701 95.747 124.621)" overflow="visible" enable-background="new"/><use xlink:href="#a" width="24" height="34.8" x="-12" y="-17.4" transform="matrix(.701 0 0 -.701 95.747 235.03)" overflow="visible" enable-background="new"/><use xlink:href="#b" width="24" height="34.6" x="-12" y="-17.3" transform="matrix(.701 0 0 -.701 63.744 183.927)" overflow="visible" enable-background="new"/><use xlink:href="#a" width="24" height="34.8" x="-12" y="-17.4" transform="matrix(.701 0 0 -.701 8.406 268.679)" overflow="visible" enable-background="new"/><use xlink:href="#b" width="24" height="34.6" x="-12" y="-17.3" transform="matrix(.701 0 0 -.701 176.178 251.925)" overflow="visible" enable-background="new"/><path opacity=".85" stroke="#CDCCCC" stroke-width="30" stroke-linecap="round" stroke-miterlimit="10" enable-background="new" d="M166.2 200.4c-13.1 40.7-121.9 3.8-152.4 30.5" fill="none"/></svg>