<svg xmlns="http://www.w3.org/2000/svg" xmlns:xlink="http://www.w3.org/1999/xlink" viewBox="653.2 39.9 606.3 1040.1" enable-background="new 653.2 39.9 606.3 1040.1"><symbol id="b" viewBox="-12 -17.1 24 34.6"><path fill="#f00" d="M11.3-5.7C11.3-12 6.2-17.1 0-17.1S-11.3-12-11.3-5.7-6.2 5.6 0 5.6 11.3.5 11.3-5.7z"/><path stroke="#808080" stroke-linecap="square" stroke-miterlimit="10" fill="none" d="M-.5 6v11"/><path stroke="#FF7BAC" stroke-width="3" stroke-linecap="round" stroke-miterlimit="10" d="M-1.9 2.5s-6.2-1.3-6.3-8.8" fill="none"/></symbol><symbol id="a" viewBox="-12.5 -17.1 24 34.8"><path fill="#EACE76" d="M11.3-5.7C11.3-12 6.2-17.1 0-17.1S-11.3-12-11.3-5.7-6.2 5.6 0 5.6 11.3.5 11.3-5.7z"/><path stroke="#808080" stroke-linecap="square" stroke-miterlimit="10" fill="none" d="M-1 6.2v11"/><path fill="#F5E2B6" d="M-8.2-7.8c-.9 0-1.5.7-1.5 1.5C-9.6.6-4.8 3.4-2.2 4c.8.2 1.6-.3 1.8-1.2C-.3 2-.8 1.2-1.6 1c-.2 0-5-1.2-5.1-7.4 0-.7-.7-1.4-1.5-1.4z"/></symbol><use xlink:href="#a" width="24" height="34.8" x="-12.5" y="-17.1" transform="matrix(2.199 0 0 -2.199 1045.332 355.631)" overflow="visible"/><use xlink:href="#b" width="24" height="34.6" x="-12" y="-17.1" transform="matrix(2.199 0 0 -2.199 878.213 854.79)" overflow="visible"/><path fill="#8E6008" d="M924.4 751.4c6.6 6.6-19.8 317.6-11 319.8 8.8 2.2 118.7 10 118.7 10l-22.3-337.6-85.4 7.8z"/><path fill="#2D440F" d="M933.6 292.8L652.6 845l607-38.9z"/><path fill="#4A671E" d="M921.8 147.6L746.9 607.8l431.8-27.7z"/><path fill="#68934F" d="M906.2 39.9L789.5 346.8l288.1-18.4z"/><path opacity=".85" stroke="#ccc" stroke-width="37" stroke-linecap="round" stroke-miterlimit="10" d="M1001.2 199.9c-43.2 71.4-97.3 92.9-191.1 92.9M1092.7 441.4c-42.5 81.5-246 35.7-319 96.9M1172.1 668.4c-41.1 127.5-382.6 12-478.4 95.7" fill="none"/><use xlink:href="#b" width="24" height="34.6" x="-12" y="-17.1" transform="matrix(2.199 0 0 -2.199 851.825 373.222)" overflow="visible"/><use xlink:href="#a" width="24" height="34.8" x="-12.5" y="-17.1" transform="matrix(2.199 0 0 -2.199 1047.531 621.702)" overflow="visible"/><use xlink:href="#b" width="24" height="34.6" x="-12" y="-17.1" transform="matrix(2.199 0 0 -2.199 827.637 617.304)" overflow="visible"/><use xlink:href="#a" width="24" height="34.8" x="-12.5" y="-17.1" transform="matrix(2.199 0 0 -2.199 678.109 883.376)" overflow="visible"/><use xlink:href="#b" width="24" height="34.6" x="-12" y="-17.1" transform="matrix(2.199 0 0 -2.199 1203.655 830.601)" overflow="visible"/></svg>