<svg xmlns="http://www.w3.org/2000/svg" viewBox="0 0 128 290" enable-background="new 0 0 128 290"><path class="bottom" fill="#6A844E" d="M75.3 246.2l3 42.8-27.7.3-6.2-40.1L0 253.6l47.5-107.5 79.7 95z"/><path class="middle" fill="#A3C25C" d="M115 190.7L3 171 52.3 59z"/><path class="bottom" fill="#B6CC96" d="M117.2 227.5c-.2 4-7.2 7.7-9.9 9.3-10.1 6-21.7 8.3-33.3 8.3-8.8 0-17.6-1.3-25.9-3.4-9.4-2.4-18.5-5.7-27.1-10.2-4-2.1-18-9.1-18.1-15.6 0-.8.2-1.6.7-2.4 2.6-4.4 9.8-.2 13.4.5 4.9 1 9.9 1.4 14.8 1.3 10-.2 19.9-2.3 29.1-6 16.7-6.7 34.6-19.7 39.2-38.1-19 7.8-43.6 4-60.5-7.3-8.2-5.5-14.8-13.3-17.9-22.7-1.3-3.9-5.6-27.1 4-23.4 1.9 1.1 6.1.1 8.1-.2 4-.6 7.9-1.6 11.7-2.7 7.1-2.2 14-5.2 20.3-9 6.2-3.8 12.1-8.7 16.1-14.5L11 101.6l35-79.2c-4.5-1.4-7.7-5.5-7.7-10.5 0-6 4.9-10.9 10.9-10.9s10.9 4.9 10.9 10.9c0 3.3-1.5 6.3-3.8 8.3l48 67.9-11.6 1.7c-4.8 10.3-13.9 18.3-23.7 24-11.9 6.9-27 12.8-41 12.7-.7 19.7 14.8 32.8 32.4 37.8 9.6 2.7 20 3.4 29.7 1.3 4.2-.9 8.3-2.3 11.9-4.7 3.7-2.5 7.4-.8 7.4 3.7v.3c-.6 18.9-14.7 34.6-29.9 44.3-16.4 10.4-36.4 15.9-55.8 14.2 14.9 8 32.2 13 49.2 13.3 8.5.1 17-1.1 24.9-4.4 3.8-1.6 7.4-3.8 10.7-6.4 2.3-1.8 5.1-4.1 7.7-1.2.7 1 1.1 1.9 1 2.8zM55 289z"/><path fill="#D5E0C2" d="M96.9 135.8c0 6-4.9 10.9-10.9 10.9s-11-4.9-11-10.9 4.9-10.9 10.9-10.9c6.1-.1 11 4.8 11 10.9zM72.8 59c-6.7 0-12.1 5.4-12.1 12.1 0 6.7 5.4 12.1 12.1 12.1s12.1-5.4 12.1-12.1c0-6.7-5.4-12.1-12.1-12.1zM34.4 84.3c-6 0-10.9 4.9-10.9 10.9s4.9 10.9 10.9 10.9 10.9-4.9 10.9-10.9-4.8-10.9-10.9-10.9zm-4.5 106.4c-6 0-10.9 4.9-10.9 10.9s4.9 10.9 10.9 10.9 10.9-4.9 10.9-10.9c.1-6-4.8-10.9-10.9-10.9zM49.7 1c-6 0-10.9 4.9-10.9 10.9s4.9 10.9 10.9 10.9 10.9-4.9 10.9-10.9S55.7 1 49.7 1z"/></svg>