<?xml version="1.0" encoding="utf-8"?>
<!-- Generator: Adobe Illustrator 18.1.0, SVG Export Plug-In . SVG Version: 6.00 Build 0)  -->
<svg version="1.1" id="Layer_1" xmlns="http://www.w3.org/2000/svg" xmlns:xlink="http://www.w3.org/1999/xlink" x="0px" y="0px"
   viewBox="0 0 128 290" enable-background="new 0 0 128 290" xml:space="preserve">
<polygon class="bottom" fill="#6A844E" points="75.3,246.2 78.3,289 50.6,289.3 44.4,249.2 0,253.6 47.5,146.1 127.2,241.1 "/>
<polygon class="middle" fill="#A3C25C" points="115,190.7 3,171 52.3,59 "/>
<path class="bottom" fill="#B6CC96" d="M117.2,227.5c-0.2,4-7.2,7.7-9.9,9.3c-10.1,6-21.7,8.3-33.3,8.3c-8.8,0-17.6-1.3-25.9-3.4
  c-9.4-2.4-18.5-5.7-27.1-10.2c-4-2.1-18-9.1-18.1-15.6c0-0.8,0.2-1.6,0.7-2.4c2.6-4.4,9.8-0.2,13.4,0.5c4.9,1,9.9,1.4,14.8,1.3
  c10-0.2,19.9-2.3,29.1-6c16.7-6.7,34.6-19.7,39.2-38.1c-19,7.8-43.6,4-60.5-7.3c-8.2-5.5-14.8-13.3-17.9-22.7
  c-1.3-3.9-5.6-27.1,4-23.4c1.9,1.1,6.1,0.1,8.1-0.2c4-0.6,7.9-1.6,11.7-2.7c7.1-2.2,14-5.2,20.3-9c6.2-3.8,12.1-8.7,16.1-14.5
  l-70.9,10.2L46,22.4c-4.5-1.4-7.7-5.5-7.7-10.5c0-6,4.9-10.9,10.9-10.9c6,0,10.9,4.9,10.9,10.9c0,3.3-1.5,6.3-3.8,8.3l48,67.9
  l-11.6,1.7c-4.8,10.3-13.9,18.3-23.7,24C57.1,120.7,42,126.6,28,126.5c-0.7,19.7,14.8,32.8,32.4,37.8c9.6,2.7,20,3.4,29.7,1.3
  c4.2-0.9,8.3-2.3,11.9-4.7c3.7-2.5,7.4-0.8,7.4,3.7c0,0.1,0,0.2,0,0.3c-0.6,18.9-14.7,34.6-29.9,44.3
  c-16.4,10.4-36.4,15.9-55.8,14.2c14.9,8,32.2,13,49.2,13.3c8.5,0.1,17-1.1,24.9-4.4c3.8-1.6,7.4-3.8,10.7-6.4
  c2.3-1.8,5.1-4.1,7.7-1.2C116.9,225.7,117.3,226.6,117.2,227.5z M55,289L55,289L55,289L55,289L55,289z"/>
<path fill="#D5E0C2" d="M96.9,135.8c0,6-4.9,10.9-10.9,10.9S75,141.8,75,135.8s4.9-10.9,10.9-10.9C92,124.8,96.9,129.7,96.9,135.8z
   M72.8,59c-6.7,0-12.1,5.4-12.1,12.1c0,6.7,5.4,12.1,12.1,12.1s12.1-5.4,12.1-12.1C84.9,64.4,79.5,59,72.8,59z M34.4,84.3
  c-6,0-10.9,4.9-10.9,10.9c0,6,4.9,10.9,10.9,10.9c6,0,10.9-4.9,10.9-10.9S40.5,84.3,34.4,84.3z M29.9,190.7c-6,0-10.9,4.9-10.9,10.9
  c0,6,4.9,10.9,10.9,10.9s10.9-4.9,10.9-10.9C40.9,195.6,36,190.7,29.9,190.7z M49.7,1c-6,0-10.9,4.9-10.9,10.9s4.9,10.9,10.9,10.9
  c6,0,10.9-4.9,10.9-10.9S55.7,1,49.7,1z"/>
</svg>
